<?xml version="1.0" encoding="UTF-8"?>
<svg id="Camada_1" data-name="Camada 1" xmlns="http://www.w3.org/2000/svg" viewBox="0 0 148.2708623201 148.2708623454">
  <defs>
    <style>
      .cls-1, .cls-2 {
        stroke-width: 0px;
      }

      .cls-2 {
        fill: #fff;
      }
    </style>
  </defs>
  <rect class="cls-1" x="4.4481258696" y="4.448126011" width="139.3746060629" height="143.8227363344"/>
  <g>
    <rect class="cls-1" x=".0000000002" y=".0000000013" width="8.8962517386" height="148.2708623229" rx="4.4481214256" ry="4.4481214256"/>
    <rect class="cls-1" x="139.3746105795" y=".0000000013" width="8.8962517386" height="148.2708623229" rx="4.4481214256" ry="4.4481214256"/>
    <rect class="cls-1" x="69.6873052899" y="-69.6873052867" width="8.8962517386" height="148.2708623176" rx="4.4481214227" ry="4.4481214227" transform="translate(78.5835570249 -69.6873052874) rotate(89.999999995)"/>
    <rect class="cls-1" x="92.7874758604" y="92.7874758724" width="8.8962517535" height="102.0705211617" rx="4.4481214421" ry="4.4481214421" transform="translate(241.0583381423 46.5871346451) rotate(89.9999999717)"/>
    <g>
      <path class="cls-2" d="m27.6772276331,64.2507070054h8.8962517392v79.6660394219c0,2.4031019797-1.9510139132,4.3541158929-4.3541158929,4.3541158929h-4.5421358463v-84.0201553147h0Z" transform="translate(64.2507070054 212.5215693255) rotate(180)"/>
      <rect class="cls-2" x="43.9870224892" y="26.4054887449" width="8.8962517386" height="41.5158414483" rx="4.4481214188" ry="4.4481214188" transform="translate(1.2717388905 95.5985578286) rotate(-90.0000000013)"/>
      <rect class="cls-2" x="43.9870224929" y="47.9409121486" width="8.8962517312" height="41.5158414483" rx="4.4481214221" ry="4.4481214221" transform="translate(-20.2636845132 117.1339812327) rotate(-90.0000000013)"/>
    </g>
    <rect class="cls-1" x="9.3904879469" y="129.984122634" width="8.8962517392" height="27.6772276331" transform="translate(157.6613502671 129.984122634) rotate(90)"/>
    <path class="cls-2" d="m75.1974346418,68.5566012141c0-15.1800263464,10.8030181216-25.8413176154,26.1241357742-25.8413176154,5.5191734838,0,10.5105369784,1.5846187288,14.7300392354,4.4412828567,1.8488104012,1.2516714131,2.1889514178,3.8469218964.8140623704,5.6060300037l-.0000048009.0000061426c-1.2500052712,1.5993249863-3.5304575742,1.9996752981-5.2169776897.8700720537-3.2004100966-2.1435816835-6.6033223666-3.1510137508-10.4682104214-3.1510137508-10.3791086566,0-17.5099395381,7.2020120811-17.5099395381,17.792757697,0,10.7318369221,7.2719221878,18.0749403094,17.7215764975,18.0749403094,3.9448166659,0,7.4644766251-.8927908161,10.7237854175-3.008280475,1.6779956228-1.089121226,3.9203312249-.6638078153,5.1522306155.9123515188l.0240136798.030724413c1.4066036126,1.7996854535.9905567767,4.4289735108-.917874403,5.6840798358-4.1037001411,2.698855509-9.1447823465,4.1475020134-15.1232466162,4.1475020134-15.3916633057,0-26.0535901211-10.5201999628-26.0535901211-25.5591350029Z"/>
  </g>
</svg>