<?xml version="1.0" encoding="UTF-8"?>
<svg id="comp_Brazil" xmlns="http://www.w3.org/2000/svg" xmlns:xlink="http://www.w3.org/1999/xlink" viewBox="0 0 165.8588556656 96.749">
  <defs>
    <style>
      .cls-1 {
        fill-rule: evenodd;
      }

      .cls-1, .cls-2, .cls-3, .cls-4, .cls-5, .cls-6 {
        stroke-width: 0px;
      }

      .cls-1, .cls-6 {
        fill: #3c9242;
      }

      .cls-2 {
        fill: none;
      }

      .cls-7 {
        clip-path: url(#clippath-1);
      }

      .cls-3 {
        fill: #fff;
      }

      .cls-4 {
        fill: #2d146e;
      }

      .cls-8 {
        clip-path: url(#clippath);
      }

      .cls-5 {
        fill: #edc226;
      }
    </style>
    <clipPath id="clippath">
      <rect class="cls-2" width="165.8559556656" height="96.749"/>
    </clipPath>
    <clipPath id="clippath-1">
      <rect class="cls-2" width="165.8588556656" height="96.749"/>
    </clipPath>
  </defs>
  <g id="Brazil">
    <g class="cls-8">
      <rect class="cls-6" width="165.8588556656" height="96.749"/>
      <polygon class="cls-5" points="25.57176 48.3711 82.92866 85.001 140.2870563116 48.3711 82.92866 11.748 25.57176 48.3711"/>
      <g class="cls-7">
        <path class="cls-4" d="m107.1166571495,48.3711c0,13.3535-10.8353997263,24.1894-24.1879971495,24.1894-13.351,0-24.184-10.8359-24.184-24.1894,0-13.3457,10.833-24.1846,24.184-24.1846,13.3525974233,0,24.1879971495,10.8389,24.1879971495,24.1846"/>
        <path class="cls-3" d="m69.11036,38.0078c-2.8203,0-5.5938.2031-8.3101.585-.519,1.1875-.9536,2.4248-1.2885,3.7002,3.1196-.5411,6.3222-.8301,9.5986-.8301,14.1841,0,27.1181974246,5.3467,36.9096971772,14.1289.3877028228-1.2344.673299983-2.5156.8602999783-3.8242-10.214799742-8.587-23.3881971555-13.7598-37.7699971555-13.7598"/>
        <path class="cls-1" d="m62.29886,41.3037c.5688-.0723.9673-.6348.8906-1.2705-.0772-.6289-.5996-1.086-1.168-1.0166-.5693.0654-.9682.6406-.8911,1.2695.0801.6328.6021,1.086,1.1685,1.0176m-.0498-.4268c.3354-.041.5634-.3955.5146-.788-.0474-.4024-.3579-.6905-.6933-.6465-.335.041-.566.3935-.5137.789.0464.3985.3598.6875.6924.6455"/>
        <path class="cls-1" d="m64.17626,41.0967l.4258-.0323-.0552-.8525.916-.0654c.3985-.0284.7007-.3741.6734-.7754-.0274-.3955-.3736-.6983-.7749-.6709l-1.3116.0937.1265,2.3028Zm.3379-1.3135l.8882-.0606c.1592-.0078.2827-.1543.272-.3164-.0142-.165-.1514-.2881-.313-.2715l-.8882.0577.041.5908Z"/>
        <path class="cls-6" d="m66.12796,40.9599c-.0191-.33-.0718-1.0556-.5611-1.0175l-.624.0449c.7173-.0498.77.6699.792.9971"/>
        <path class="cls-1" d="m67.09816,40.9131l1.0859-.0225c.5469-.0049.9785-.4531.9702-1.0029l-.0083-.3301c-.0107-.541-.4565-.9785-1.0029-.9697l-1.0859.0185.041,2.3067Zm.4209-.4317l.624-.0166c.3462-.0078.6182-.291.6099-.6347v-.1983c-.0054-.3437-.2886-.6181-.6377-.6103l-.6236.0088.0274,1.4511Z"/>
        <polygon class="cls-6" points="70.02296 40.8828 72.09526 40.957 72.10936 40.5283 70.43266 40.4707 70.45166 39.8769 71.77096 39.9238 71.78466 39.5273 70.46586 39.4834 70.48196 39.0244 72.06546 39.0801 72.07376 38.6484 70.10256 38.5791 70.02296 40.8828"/>
        <polygon class="cls-6" points="72.94486 41.0117 73.34086 41.042 73.47556 39.4697 73.79396 41.081 74.15966 41.1162 74.75686 39.583 74.61616 41.1553 75.00926 41.1904 75.20706 38.8955 74.63576 38.8437 74.03856 40.3799 73.72026 38.7637 73.14546 38.7139 72.94486 41.0117"/>
        <polygon class="cls-6" points="77.71676 41.5449 79.42086 41.8369 79.49026 41.4521 78.17336 41.2236 78.26126 40.7041 79.33296 40.8906 79.39946 40.498 78.33006 40.3164 78.39016 39.959 79.66016 40.1816 79.73146 39.789 78.06636 39.5 77.71676 41.5449"/>
        <path class="cls-1" d="m82.09036,42.4053l.415.1044.2144-.8242.8906.2285c.3872.1016.7861-.1318.8877-.5175.0962-.3848-.1348-.7832-.522-.8848l-1.2759-.3301-.6098,2.2237Zm.7363-1.1377l.8633.2255c.1538.0381.3193-.0556.3574-.2148.041-.1592-.0522-.3184-.2114-.3594l-.8609-.2236-.1484.5723Z"/>
        <path class="cls-1" d="m84.91896,43.1562l.4067.1319.2554-.8164.8799.2744c.3794.1211.7886-.0879.9121-.4697.1157-.3819-.0933-.7862-.4722-.9073l-1.2622-.3984-.7197,2.1855Zm.7944-1.0918l.8438.2666c.1567.0498.3242-.0351.3735-.1923.0498-.1592-.0356-.3213-.1919-.3741l-.8472-.2666-.1782.5664Z"/>
        <path class="cls-6" d="m86.78516,43.7471c.1016-.3106.3159-1.001-.1514-1.1524l-.5991-.1865c.6924.2178.4727.9072.3711,1.2207"/>
        <path class="cls-1" d="m88.67086,44.4228c.5371.2012,1.1529-.1211,1.3731-.7148.2222-.5928-.0332-1.2422-.5664-1.4424-.5347-.2012-1.1504.1211-1.3731.7149-.2221.5966.0303,1.2421.5664,1.4423m.1509-.4013c.3135.1211.6802-.0909.8208-.4639.1402-.374,0-.7695-.3135-.8906-.3149-.1182-.686.0879-.8232.4668-.1431.374.0029.7754.3159.8877"/>
        <path class="cls-1" d="m91.38236,45.5205c.5249.2305,1.1577-.0635,1.4106-.6465.2524-.583.0352-1.2363-.4922-1.4678-.5254-.2256-1.1572.0577-1.4106.6436-.2525.582-.0327,1.2422.4922,1.4707m.1709-.3936c.3076.1377.687-.0547.8462-.4209.1621-.3652.041-.7754-.2691-.9062-.3052-.1328-.6875.0547-.8496.4199-.1567.3652-.0356.7695.2725.9072"/>
        <rect class="cls-6" x="92.1623246022" y="44.4150151955" width=".3289207955" height=".8725196089" transform="translate(14.4702309853 111.740953535) rotate(-66.5771339965)"/>
        <polygon class="cls-6" points="92.49026 44.7451 92.79296 44.874 92.33346 45.9326 92.03126 45.8008 92.49026 44.7451"/>
        <path class="cls-1" d="m93.10306,46.292l.3847.1904.3828-.7646.8212974634.4091c.3603999909.1846.7944999799.0362.9736999754-.3213.1756999956-.3603.0355999991-.7919-.3276999917-.9755l-1.1737974471-.583-1.061,2.0449Zm.957-.9561l.7968974592.3955c.1454999963.0742.3216999919.0137.39549999-.1318.0721999982-.1484.0140999996-.3242-.1313999967-.3984l-.7943999799-.3985-.2665974726.5332Z"/>
        <path class="cls-6" d="m94.8569574592,47.164c.1454999963-.2919.4676999882-.9375.0278025408-1.1601l-.5581025274-.2803c.6454999837.3213.3241999918.9727.1781999955,1.2637"/>
        <polygon class="cls-6" points="95.7119574376 47.6201 97.5151573921 48.6396 97.7265573867 48.2666 96.2670574236 47.4355 96.5585574162 46.9277 97.7021573874 47.5732 97.8998573824 47.2295 96.7534574113 46.584 96.9789574056 46.1797 98.3564573708 46.958 98.5654573655 46.584 96.847157409 45.6133 95.7119574376 47.6201"/>
        <path class="cls-6" d="m99.07376,48.7441c-.1236026442.1953.0028973526.4121.2777973457.5889.277299993.1758.4672999882.167.5468999862.0469.2557999935-.3965-1.2011999697-.9737-.753399981-1.6641.3851999903-.5908,1.0472999735-.1318,1.2972999672.0283.2499999937.1592.6514026819.5713.3384026819,1.044l-.4204026798-.2696c.1342999966-.206-.0141999996-.4091-.239299994-.5439-.2089999947-.1455-.3876999902-.2031-.5170999869,0-.2142999946.3213,1.2153999693.9268.7753999804,1.6162-.3187999919.5059-.8822999777.2832-1.2557999683.0469-.3222999919-.2061-.7973999799-.6875-.4867973514-1.168l.437.2744Z"/>
        <path class="cls-6" d="m101.5478572902,50.3769c-.1371999965.1905-.0224999994.4102.2445999938.6026.2660999933.1924.4560999885.1953.5439999863.0742.2748999931-.377-1.1542999708-1.0313-.6679999831-1.6963.4179999894-.5742,1.0556999733-.0801,1.2977999672.0938.239299994.1728.6181999844.6015.2827999929,1.0605l-.4091999897-.291c.1425999964-.1983.0106999997-.4043-.2089999947-.5606-.2035999949-.1484-.3739999906-.2177-.514199987-.0224-.2308972758.3086,1.1625999706.9873.6874999826,1.6494-.3465999912.4922-.8988999773.2422-1.2562999683-.0137-.3080972902-.2226-.7616999808-.7256-.4262999892-1.1963l.4262999892.2998Z"/>
        <path class="cls-1" d="m103.8842572312,53.0303c.4452999888.3564,1.1293999715.2382,1.5253999615-.2559.39599999-.498.3515999911-1.1875-.0932999976-1.5449-.4481999887-.3574-1.1327999714-.2451-1.5311999613.2529-.3925999901.5-.3515999911,1.1924.0990999975,1.5479m.2665999933-.336c.2611999934.209.6762999829.1299.9233999767-.1865.2528999936-.3106.239199994-.7373-.0273999993-.9482-.2606999934-.209-.673799983-.1241-.9237999767.1865-.2524999936.3164-.238799994.7373.0277999993.9482"/>
        <polygon class="cls-3" points="63.18656 42.9941 62.86526 43.9785 63.35446 44.1377 63.18656 42.9941"/>
        <polygon class="cls-3" points="63.18656 42.9941 63.50586 43.9785 63.01366 44.1377 63.18656 42.9941"/>
        <polygon class="cls-3" points="64.17036 43.708 63.13186 43.708 63.13186 44.2226 64.17036 43.708"/>
        <polygon class="cls-3" points="64.17036 43.708 63.33206 44.3164 63.02446 43.9004 64.17036 43.708"/>
        <polygon class="cls-3" points="62.20016 43.708 63.03856 44.3164 63.34036 43.9004 62.20016 43.708"/>
        <polygon class="cls-3" points="62.20016 43.708 63.23876 43.708 63.23876 44.2226 62.20016 43.708"/>
        <polygon class="cls-3" points="63.79146 44.8681 63.47266 43.8818 62.98046 44.0439 63.79146 44.8681"/>
        <polygon class="cls-3" points="63.79146 44.8681 62.95846 44.2588 63.25826 43.8379 63.79146 44.8681"/>
        <polygon class="cls-3" points="62.57666 44.8681 63.41746 44.2588 63.10986 43.8379 62.57666 44.8681"/>
        <polygon class="cls-3" points="62.57666 44.8681 62.89506 43.8818 63.39016 44.0439 62.57666 44.8681"/>
        <polygon class="cls-3" points="65.32276 53.1621 65.00346 54.1455 65.49556 54.3056 65.32276 53.1621"/>
        <polygon class="cls-3" points="65.32276 53.1621 65.64156 54.1455 65.15476 54.3056 65.32276 53.1621"/>
        <polygon class="cls-3" points="66.30906 53.8789 65.27296 53.8789 65.27296 54.3955 66.30906 53.8789"/>
        <polygon class="cls-3" points="66.30906 53.8789 65.46826 54.4844 65.16896 54.0683 66.30906 53.8789"/>
        <polygon class="cls-3" points="64.33596 53.8789 65.17436 54.4844 65.48196 54.0683 64.33596 53.8789"/>
        <polygon class="cls-3" points="64.33596 53.8789 65.37456 53.8789 65.37456 54.3955 64.33596 53.8789"/>
        <polygon class="cls-3" points="65.93266 55.0332 65.61376 54.0527 65.11916 54.2119 65.93266 55.0332"/>
        <polygon class="cls-3" points="65.93266 55.0332 65.09426 54.4258 65.39946 54.0107 65.93266 55.0332"/>
        <polygon class="cls-3" points="64.71486 55.0332 65.55326 54.4258 65.24806 54.0107 64.71486 55.0332"/>
        <polygon class="cls-3" points="64.71486 55.0332 65.03666 54.0527 65.53126 54.2119 64.71486 55.0332"/>
        <polygon class="cls-3" points="62.36476 55.6767 62.15036 56.334 62.47756 56.4414 62.36476 55.6767"/>
        <polygon class="cls-3" points="62.36476 55.6767 62.57666 56.334 62.24656 56.4414 62.36476 55.6767"/>
        <polygon class="cls-3" points="63.01906 56.1553 62.32906 56.1553 62.32906 56.5019 63.01906 56.1553"/>
        <polygon class="cls-3" points="63.01906 56.1553 62.45846 56.5625 62.25736 56.2822 63.01906 56.1553"/>
        <polygon class="cls-3" points="61.70506 56.1553 62.26316 56.5625 62.46386 56.2822 61.70506 56.1553"/>
        <polygon class="cls-3" points="61.70506 56.1553 62.39506 56.1553 62.39506 56.5019 61.70506 56.1553"/>
        <polygon class="cls-3" points="62.77146 56.9277 62.55716 56.2734 62.22706 56.3779 62.77146 56.9277"/>
        <polygon class="cls-3" points="62.77146 56.9277 62.20846 56.5205 62.41406 56.2402 62.77146 56.9277"/>
        <polygon class="cls-3" points="61.95556 56.9277 62.51616 56.5205 62.31246 56.2402 61.95556 56.9277"/>
        <polygon class="cls-3" points="61.95556 56.9277 62.16996 56.2734 62.49656 56.3779 61.95556 56.9277"/>
        <polygon class="cls-3" points="67.69186 52.2217 67.54346 52.6894 67.77736 52.7685 67.69186 52.2217"/>
        <polygon class="cls-3" points="67.69186 52.2217 67.84566 52.6894 67.61276 52.7685 67.69186 52.2217"/>
        <polygon class="cls-3" points="68.16456 52.5654 67.66996 52.5654 67.66996 52.8096 68.16456 52.5654"/>
        <polygon class="cls-3" points="68.16456 52.5654 67.76316 52.8564 67.61766 52.6562 68.16456 52.5654"/>
        <polygon class="cls-3" points="67.22456 52.5654 67.62056 52.8564 67.76906 52.6562 67.22456 52.5654"/>
        <polygon class="cls-3" points="67.22456 52.5654 67.71386 52.5654 67.71386 52.8096 67.22456 52.5654"/>
        <polygon class="cls-3" points="67.98386 53.1152 67.82956 52.6426 67.59866 52.7217 67.98386 53.1152"/>
        <polygon class="cls-3" points="67.98386 53.1152 67.58496 52.8262 67.72756 52.6289 67.98386 53.1152"/>
        <polygon class="cls-3" points="67.40336 53.1152 67.80226 52.8262 67.65626 52.6289 67.40336 53.1152"/>
        <polygon class="cls-3" points="67.40336 53.1152 67.55766 52.6426 67.79056 52.7217 67.40336 53.1152"/>
        <polygon class="cls-3" points="70.35836 55.7344 70.09476 56.5566 70.50146 56.6943 70.35836 55.7344"/>
        <polygon class="cls-3" points="70.35836 55.7344 70.62496 56.5566 70.21536 56.6943 70.35836 55.7344"/>
        <polygon class="cls-3" points="71.17776 56.331 70.31446 56.331 70.31446 56.7627 71.17776 56.331"/>
        <polygon class="cls-3" points="71.17776 56.331 70.48196 56.8428 70.22896 56.4902 71.17776 56.331"/>
        <polygon class="cls-3" points="69.53366 56.331 70.23436 56.8428 70.49026 56.4902 69.53366 56.331"/>
        <polygon class="cls-3" points="69.53366 56.331 70.40236 56.331 70.40236 56.7627 69.53366 56.331"/>
        <polygon class="cls-3" points="70.86716 57.2959 70.60006 56.4795 70.18796 56.6113 70.86716 57.2959"/>
        <polygon class="cls-3" points="70.86716 57.2959 70.16846 56.79 70.42136 56.4414 70.86716 57.2959"/>
        <polygon class="cls-3" points="69.85256 57.2959 70.54786 56.79 70.29496 56.4414 69.85256 57.2959"/>
        <polygon class="cls-3" points="69.85256 57.2959 70.12206 56.4795 70.52876 56.6113 69.85256 57.2959"/>
        <polygon class="cls-3" points="69.63526 58.1377 69.36866 58.959 69.77836 59.0967 69.63526 58.1377"/>
        <polygon class="cls-3" points="69.63526 58.1377 69.90236 58.959 69.48976 59.0967 69.63526 58.1377"/>
        <polygon class="cls-3" points="70.45756 58.7334 69.59176 58.7334 69.59176 59.165 70.45756 58.7334"/>
        <polygon class="cls-3" points="70.45756 58.7334 69.75636 59.2451 69.50346 58.8926 70.45756 58.7334"/>
        <polygon class="cls-3" points="68.81346 58.7334 69.51416 59.2451 69.76466 58.8926 68.81346 58.7334"/>
        <polygon class="cls-3" points="68.81346 58.7334 69.67626 58.7334 69.67626 59.165 68.81346 58.7334"/>
        <polygon class="cls-3" points="70.14116 59.7041 69.87746 58.8799 69.46776 59.0117 70.14116 59.7041"/>
        <polygon class="cls-3" points="70.14116 59.7041 69.44046 59.1924 69.69576 58.8437 70.14116 59.7041"/>
        <polygon class="cls-3" points="69.12696 59.7041 69.82766 59.1924 69.57226 58.8437 69.12696 59.7041"/>
        <polygon class="cls-3" points="69.12696 59.7041 69.39596 58.8799 69.80566 59.0117 69.12696 59.7041"/>
        <polygon class="cls-3" points="90.43456 39.8301 90.10986 40.8193 90.60446 40.9795 90.43456 39.8301"/>
        <polygon class="cls-3" points="90.43456 39.8301 90.75296 40.8193 90.26076 40.9795 90.43456 39.8301"/>
        <polygon class="cls-3" points="91.41556 40.5478 90.38186 40.5478 90.38186 41.0693 91.41556 40.5478"/>
        <polygon class="cls-3" points="91.41556 40.5478 90.57716 41.1572 90.27446 40.7373 91.41556 40.5478"/>
        <polygon class="cls-3" points="89.44486 40.5478 90.28316 41.1572 90.59086 40.7373 89.44486 40.5478"/>
        <polygon class="cls-3" points="89.44486 40.5478 90.48336 40.5478 90.48336 41.0693 89.44486 40.5478"/>
        <polygon class="cls-3" points="91.04146 41.708 90.72026 40.7236 90.22556 40.8828 91.04146 41.708"/>
        <polygon class="cls-3" points="91.04146 41.708 90.20316 41.1006 90.50586 40.6797 91.04146 41.708"/>
        <polygon class="cls-3" points="89.82376 41.708 90.65966 41.1006 90.35696 40.6797 89.82376 41.708"/>
        <polygon class="cls-3" points="89.82376 41.708 90.14256 40.7236 90.63766 40.8828 89.82376 41.708"/>
        <polygon class="cls-3" points="99.8764573324 55.8281 99.5546573406 56.8154 100.0493573281 56.9746 99.8764573324 55.8281"/>
        <polygon class="cls-3" points="99.8764573324 55.8281 100.19776 56.8154 99.7031573368 56.9746 99.8764573324 55.8281"/>
        <polygon class="cls-3" points="100.8603573076 56.54 99.8266573337 56.54 99.8266573337 57.0596 100.8603573076 56.54"/>
        <polygon class="cls-3" points="100.8603573076 56.54 100.0224573287 57.1533 99.71976 56.7324 100.8603573076 56.54"/>
        <polygon class="cls-3" points="98.8896573574 56.54 99.7280573362 57.1533 100.0331573285 56.7324 98.8896573574 56.54"/>
        <polygon class="cls-3" points="98.8896573574 56.54 99.9262573312 56.54 99.9262573312 57.0596 98.8896573574 56.54"/>
        <polygon class="cls-3" points="100.486857317 57.7021 100.1650573251 56.7158 99.6728573376 56.873 100.486857317 57.7021"/>
        <polygon class="cls-3" points="100.486857317 57.7021 99.6450573383 57.0898 99.9531573305 56.6689 100.486857317 57.7021"/>
        <polygon class="cls-3" points="99.2661573478 57.7021 100.1069573266 57.0898 99.79976 56.6689 99.2661573478 57.7021"/>
        <polygon class="cls-3" points="99.2661573478 57.7021 99.5849573398 56.7158 100.0795573273 56.873 99.2661573478 57.7021"/>
        <polygon class="cls-3" points="103.2328572476 56.4033 103.0180572531 57.0596 103.3481572447 57.164 103.2328572476 56.4033"/>
        <polygon class="cls-3" points="103.2328572476 56.4033 103.44676 57.0596 103.1171572506 57.164 103.2328572476 56.4033"/>
        <polygon class="cls-3" points="103.889657231 56.8808 103.19676 56.8808 103.19676 57.2217 103.889657231 56.8808"/>
        <polygon class="cls-3" points="103.889657231 56.8808 103.3320572451 57.2851 103.1308572502 57.0068 103.889657231 56.8808"/>
        <polygon class="cls-3" points="102.5756572642 56.8808 103.1362572501 57.2851 103.3398572449 57.0068 102.5756572642 56.8808"/>
        <polygon class="cls-3" points="102.5756572642 56.8808 103.2651572468 56.8808 103.2651572468 57.2217 102.5756572642 56.8808"/>
        <polygon class="cls-3" points="103.6396572374 57.6504 103.4252572428 56.9941 103.098157251 57.1006 103.6396572374 57.6504"/>
        <polygon class="cls-3" points="103.6396572374 57.6504 103.0786572515 57.2471 103.2822572464 56.9658 103.6396572374 57.6504"/>
        <polygon class="cls-3" points="102.8256572579 57.6504 103.38376 57.2471 103.1830572489 56.9658 102.8256572579 57.6504"/>
        <polygon class="cls-3" points="102.8256572579 57.6504 103.0375572526 56.9941 103.3701572442 57.1006 102.8256572579 57.6504"/>
        <polygon class="cls-3" points="100.8603573076 58.1377 100.59376 58.959 101.0063573039 59.0967 100.8603573076 58.1377"/>
        <polygon class="cls-3" points="100.8603573076 58.1377 101.1293573008 58.959 100.7202573111 59.0967 100.8603573076 58.1377"/>
        <polygon class="cls-3" points="101.6850572867 58.7334 100.82176 58.7334 100.82176 59.165 101.6850572867 58.7334"/>
        <polygon class="cls-3" points="101.6850572867 58.7334 100.9868573044 59.2451 100.7343573108 58.8926 101.6850572867 58.7334"/>
        <polygon class="cls-3" points="100.0410573283 58.7334 100.73976 59.2451 100.9951573042 58.8926 100.0410573283 58.7334"/>
        <polygon class="cls-3" points="100.0410573283 58.7334 100.9072573064 58.7334 100.9072573064 59.165 100.0410573283 58.7334"/>
        <polygon class="cls-3" points="101.3740572946 59.7041 101.1054573014 58.8799 100.6923573118 59.0117 101.3740572946 59.7041"/>
        <polygon class="cls-3" points="101.3740572946 59.7041 100.6738573123 59.1924 100.9262573059 58.8437 101.3740572946 59.7041"/>
        <polygon class="cls-3" points="100.3569573203 59.7041 101.0556573026 59.1924 100.8002573091 58.8437 100.3569573203 59.7041"/>
        <polygon class="cls-3" points="100.3569573203 59.7041 100.6210573136 58.8799 101.0331573032 59.0117 100.3569573203 59.7041"/>
        <polygon class="cls-3" points="95.0385574546 63.2031 94.7719574614 64.0283 95.181157451 64.1621 95.0385574546 63.2031"/>
        <polygon class="cls-3" points="95.0385574546 63.2031 95.3076574478 64.0283 94.8954574583 64.1621 95.0385574546 63.2031"/>
        <polygon class="cls-3" points="95.8603574339 63.8056 94.9970574557 63.8056 94.9970574557 64.2373 95.8603574339 63.8056"/>
        <polygon class="cls-3" points="95.8603574339 63.8056 95.1650574514 64.3105 94.906257458 63.959 95.8603574339 63.8056"/>
        <polygon class="cls-3" points="94.21676 63.8056 94.9179574577 64.3105 95.1679574514 63.959 94.21676 63.8056"/>
        <polygon class="cls-3" points="94.21676 63.8056 95.0795574536 63.8056 95.0795574536 64.2373 94.21676 63.8056"/>
        <polygon class="cls-3" points="95.5468574418 64.7676 95.2802574485 63.9482 94.8705574589 64.0801 95.5468574418 64.7676"/>
        <polygon class="cls-3" points="95.5468574418 64.7676 94.8432574596 64.2588 95.102057453 63.9121 95.5468574418 64.7676"/>
        <polygon class="cls-3" points="94.52976 64.7676 95.2309574498 64.2588 94.9780574562 63.9121 94.52976 64.7676"/>
        <polygon class="cls-3" points="94.52976 64.7676 94.7993574607 63.9482 95.2089574503 64.0801 94.52976 64.7676"/>
        <polygon class="cls-3" points="95.0053574555 65.8144 94.7939574608 66.4717 95.1210574526 66.5781 95.0053574555 65.8144"/>
        <polygon class="cls-3" points="95.0053574555 65.8144 95.21976 66.4717 94.8901574584 66.5781 95.0053574555 65.8144"/>
        <polygon class="cls-3" points="95.6625574389 66.293 94.9721574563 66.293 94.9721574563 66.6387 95.6625574389 66.293"/>
        <polygon class="cls-3" points="95.6625574389 66.293 95.102057453 66.6963 94.8984574582 66.416 95.6625574389 66.293"/>
        <polygon class="cls-3" points="94.351057472 66.293 94.906257458 66.6963 95.1098574528 66.416 94.351057472 66.293"/>
        <polygon class="cls-3" points="94.351057472 66.293 95.0385574546 66.293 95.0385574546 66.6387 94.351057472 66.293"/>
        <polygon class="cls-3" points="95.4125574452 67.0625 95.2006574505 66.4082 94.8705574589 66.5156 95.4125574452 67.0625"/>
        <polygon class="cls-3" points="95.4125574452 67.0625 94.8520574594 66.6582 95.0576574542 66.3779 95.4125574452 67.0625"/>
        <polygon class="cls-3" points="94.5986574658 67.0625 95.1596574516 66.6582 94.9589574567 66.3779 94.5986574658 67.0625"/>
        <polygon class="cls-3" points="94.5986574658 67.0625 94.8129574603 66.4082 95.1454574519 66.5156 94.5986574658 67.0625"/>
        <polygon class="cls-3" points="97.440957394 61.4717 97.2265573994 62.1308 97.556157391 62.2353 97.440957394 61.4717"/>
        <polygon class="cls-3" points="97.440957394 61.4717 97.6523573886 62.1308 97.3256573969 62.2353 97.440957394 61.4717"/>
        <polygon class="cls-3" points="98.0981573774 61.9472 97.4052573949 61.9472 97.4052573949 62.293 98.0981573774 61.9472"/>
        <polygon class="cls-3" points="98.0981573774 61.9472 97.5395573915 62.3564 97.3364573966 62.0762 98.0981573774 61.9472"/>
        <polygon class="cls-3" points="96.7841574105 61.9472 97.34476 62.3564 97.5483573912 62.0762 96.7841574105 61.9472"/>
        <polygon class="cls-3" points="96.7841574105 61.9472 97.4765573931 61.9472 97.4765573931 62.293 96.7841574105 61.9472"/>
        <polygon class="cls-3" points="97.8476573837 62.7226 97.63376 62.0654 97.3090573973 62.1728 97.8476573837 62.7226"/>
        <polygon class="cls-3" points="97.8476573837 62.7226 97.2895573978 62.3125 97.4960573926 62.0381 97.8476573837 62.7226"/>
        <polygon class="cls-3" points="97.0366574042 62.7226 97.59476 62.3125 97.3886573953 62.0381 97.0366574042 62.7226"/>
        <polygon class="cls-3" points="97.0366574042 62.7226 97.2514573987 62.0654 97.5756573906 62.1728 97.0366574042 62.7226"/>
        <polygon class="cls-3" points="99.3813573449 60.0801 99.1176573516 60.9023 99.5248573413 61.0371 99.3813573449 60.0801"/>
        <polygon class="cls-3" points="99.3813573449 60.0801 99.6484573382 60.9023 99.2382573486 61.0371 99.3813573449 60.0801"/>
        <polygon class="cls-3" points="100.2006573242 60.6767 99.337357346 60.6767 99.337357346 61.1084 100.2006573242 60.6767"/>
        <polygon class="cls-3" points="100.2006573242 60.6767 99.5053573418 61.1826 99.2524573482 60.8369 100.2006573242 60.6767"/>
        <polygon class="cls-3" points="98.5595573657 60.6767 99.2578573481 61.1826 99.51076 60.8369 98.5595573657 60.6767"/>
        <polygon class="cls-3" points="98.5595573657 60.6767 99.4252573438 60.6767 99.4252573438 61.1084 98.5595573657 60.6767"/>
        <polygon class="cls-3" points="99.8901573321 61.6396 99.6235573388 60.8222 99.2109573492 60.9551 99.8901573321 61.6396"/>
        <polygon class="cls-3" points="99.8901573321 61.6396 99.1948573496 61.1338 99.4448573433 60.7871 99.8901573321 61.6396"/>
        <polygon class="cls-3" points="98.8759573577 61.6396 99.57376 61.1338 99.3183573465 60.7871 98.8759573577 61.6396"/>
        <polygon class="cls-3" points="98.8759573577 61.6396 99.1450573509 60.8222 99.5522573406 60.9551 98.8759573577 61.6396"/>
        <polygon class="cls-3" points="94.9365574572 61.0127 94.7275574625 61.667 95.0576574542 61.7764 94.9365574572 61.0127"/>
        <polygon class="cls-3" points="94.9365574572 61.0127 95.1508574518 61.667 94.82715746 61.7764 94.9365574572 61.0127"/>
        <polygon class="cls-3" points="95.5966574405 61.4883 94.906257458 61.4883 94.906257458 61.834 95.5966574405 61.4883"/>
        <polygon class="cls-3" points="95.5966574405 61.4883 95.0385574546 61.8916 94.8378574597 61.6113 95.5966574405 61.4883"/>
        <polygon class="cls-3" points="94.2822574737 61.4883 94.8432574596 61.8916 95.0439574545 61.6113 94.2822574737 61.4883"/>
        <polygon class="cls-3" points="94.2822574737 61.4883 94.9721574563 61.4883 94.9721574563 61.834 94.2822574737 61.4883"/>
        <polygon class="cls-3" points="95.3466574469 62.2627 95.1323574523 61.6035 94.8022574606 61.7051 95.3466574469 62.2627"/>
        <polygon class="cls-3" points="95.3466574469 62.2627 94.785157461 61.8535 94.9892574559 61.5762 95.3466574469 62.2627"/>
        <polygon class="cls-3" points="94.53276 62.2627 95.0932574533 61.8535 94.8901574584 61.5762 94.53276 62.2627"/>
        <polygon class="cls-3" points="94.53276 62.2627 94.7441574621 61.6035 95.0795574536 61.7051 94.53276 62.2627"/>
        <polygon class="cls-3" points="73.71486 48.4971 73.44776 49.3164 73.86036 49.4512 73.71486 48.4971"/>
        <polygon class="cls-3" points="73.71486 48.4971 73.98096 49.3164 73.57176 49.4512 73.71486 48.4971"/>
        <polygon class="cls-3" points="74.53616 49.0908 73.67336 49.0908 73.67336 49.5254 74.53616 49.0908"/>
        <polygon class="cls-3" points="74.53616 49.0908 73.83836 49.6015 73.58546 49.25 74.53616 49.0908"/>
        <polygon class="cls-3" points="72.89546 49.0908 73.59376 49.6015 73.84376 49.25 72.89546 49.0908"/>
        <polygon class="cls-3" points="72.89546 49.0908 73.75826 49.0908 73.75826 49.5254 72.89546 49.0908"/>
        <polygon class="cls-3" points="74.22026 50.0586 73.95656 49.2392 73.54396 49.3711 74.22026 50.0586"/>
        <polygon class="cls-3" points="74.22026 50.0586 73.52786 49.5527 73.78076 49.2002 74.22026 50.0586"/>
        <polygon class="cls-3" points="73.20606 50.0586 73.90726 49.5527 73.65136 49.2002 73.20606 50.0586"/>
        <polygon class="cls-3" points="73.20606 50.0586 73.47556 49.2392 73.88766 49.3711 73.20606 50.0586"/>
        <polygon class="cls-3" points="89.51076 46.4658 89.29636 47.1201 89.62646 47.2295 89.51076 46.4658"/>
        <polygon class="cls-3" points="89.51076 46.4658 89.72506 47.1201 89.39506 47.2295 89.51076 46.4658"/>
        <polygon class="cls-3" points="90.16746 46.9414 89.47756 46.9414 89.47756 47.2881 90.16746 46.9414"/>
        <polygon class="cls-3" points="90.16746 46.9414 89.60936 47.3506 89.40916 47.0703 90.16746 46.9414"/>
        <polygon class="cls-3" points="88.85746 46.9414 89.41456 47.3506 89.61476 47.0703 88.85746 46.9414"/>
        <polygon class="cls-3" points="88.85746 46.9414 89.54346 46.9414 89.54346 47.2881 88.85746 46.9414"/>
        <polygon class="cls-3" points="89.91746 47.7158 89.70316 47.0596 89.37306 47.164 89.91746 47.7158"/>
        <polygon class="cls-3" points="89.91746 47.7158 89.35696 47.3066 89.56006 47.0264 89.91746 47.7158"/>
        <polygon class="cls-3" points="89.10496 47.7158 89.66456 47.3066 89.45846 47.0264 89.10496 47.7158"/>
        <polygon class="cls-3" points="89.10496 47.7158 89.31496 47.0596 89.64506 47.164 89.10496 47.7158"/>
        <polygon class="cls-3" points="82.92866 58.1924 82.60696 59.1816 83.10156 59.3418 82.92866 58.1924"/>
        <polygon class="cls-3" points="82.92866 58.1924 83.25046 59.1816 82.75826 59.3418 82.92866 58.1924"/>
        <polygon class="cls-3" points="83.91556 58.9092 82.87936 58.9092 82.87936 59.4326 83.91556 58.9092"/>
        <polygon class="cls-3" points="83.91556 58.9092 83.08006 59.5195 82.77196 59.0996 83.91556 58.9092"/>
        <polygon class="cls-3" points="81.94726 58.9092 82.78276 59.5195 83.08836 59.0996 81.94726 58.9092"/>
        <polygon class="cls-3" points="81.94726 58.9092 82.98386 58.9092 82.98386 59.4326 81.94726 58.9092"/>
        <polygon class="cls-3" points="83.53856 60.0693 83.21976 59.0849 82.72506 59.2451 83.53856 60.0693"/>
        <polygon class="cls-3" points="83.53856 60.0693 82.70016 59.4619 83.00536 59.042 83.53856 60.0693"/>
        <polygon class="cls-3" points="82.32126 60.0693 83.15676 59.4619 82.85446 59.042 82.32126 60.0693"/>
        <polygon class="cls-3" points="82.32126 60.0693 82.63966 59.0849 83.13476 59.2451 82.32126 60.0693"/>
        <polygon class="cls-3" points="85.72946 53.5654 85.45996 54.3847 85.87256 54.5195 85.72946 53.5654"/>
        <polygon class="cls-3" points="85.72946 53.5654 85.99656 54.3847 85.58106 54.5195 85.72946 53.5654"/>
        <polygon class="cls-3" points="86.54886 54.1621 85.68606 54.1621 85.68606 54.5908 86.54886 54.1621"/>
        <polygon class="cls-3" points="86.54886 54.1621 85.84766 54.668 85.59526 54.3193 86.54886 54.1621"/>
        <polygon class="cls-3" points="84.90476 54.1621 85.60596 54.668 85.85886 54.3193 84.90476 54.1621"/>
        <polygon class="cls-3" points="84.90476 54.1621 85.76806 54.1621 85.76806 54.5908 84.90476 54.1621"/>
        <polygon class="cls-3" points="86.23246 55.1269 85.96876 54.3056 85.55956 54.4394 86.23246 55.1269"/>
        <polygon class="cls-3" points="86.23246 55.1269 85.53706 54.6191 85.78756 54.2666 86.23246 55.1269"/>
        <polygon class="cls-3" points="85.21876 55.1269 85.91896 54.6191 85.66646 54.2666 85.21876 55.1269"/>
        <polygon class="cls-3" points="85.21876 55.1269 85.48776 54.3056 85.89696 54.4394 85.21876 55.1269"/>
        <polygon class="cls-3" points="82.92866 51.3945 82.66206 52.2139 83.07426 52.3476 82.92866 51.3945"/>
        <polygon class="cls-3" points="82.92866 51.3945 83.19776 52.2139 82.78566 52.3476 82.92866 51.3945"/>
        <polygon class="cls-3" points="83.75046 51.9883 82.88716 51.9883 82.88716 52.4228 83.75046 51.9883"/>
        <polygon class="cls-3" points="83.75046 51.9883 83.05226 52.4941 82.79976 52.1474 83.75046 51.9883"/>
        <polygon class="cls-3" points="82.10936 51.9883 82.80766 52.4941 83.06056 52.1474 82.10936 51.9883"/>
        <polygon class="cls-3" points="82.10936 51.9883 82.97266 51.9883 82.97266 52.4228 82.10936 51.9883"/>
        <polygon class="cls-3" points="83.43706 52.956 83.17086 52.1338 82.76076 52.2656 83.43706 52.956"/>
        <polygon class="cls-3" points="83.43706 52.956 82.73926 52.4502 82.99216 52.0976 83.43706 52.956"/>
        <polygon class="cls-3" points="82.41996 52.956 83.12106 52.4502 82.86816 52.0976 82.41996 52.956"/>
        <polygon class="cls-3" points="82.41996 52.956 82.68946 52.1338 83.10156 52.2656 82.41996 52.956"/>
        <polygon class="cls-3" points="80.49606 53.7363 80.28126 54.3955 80.60886 54.5 80.49606 53.7363"/>
        <polygon class="cls-3" points="80.49606 53.7363 80.70756 54.3955 80.37746 54.5 80.49606 53.7363"/>
        <polygon class="cls-3" points="81.15286 54.2119 80.46286 54.2119 80.46286 54.5586 81.15286 54.2119"/>
        <polygon class="cls-3" points="81.15286 54.2119 80.59226 54.6211 80.38916 54.3408 81.15286 54.2119"/>
        <polygon class="cls-3" points="79.83646 54.2119 80.39696 54.6211 80.59766 54.3408 79.83646 54.2119"/>
        <polygon class="cls-3" points="79.83646 54.2119 80.52876 54.2119 80.52876 54.5586 79.83646 54.2119"/>
        <polygon class="cls-3" points="80.89986 54.9873 80.69096 54.3301 80.35886 54.4346 80.89986 54.9873"/>
        <polygon class="cls-3" points="80.89986 54.9873 80.34176 54.583 80.54586 54.3027 80.89986 54.9873"/>
        <polygon class="cls-3" points="80.08936 54.9873 80.64986 54.583 80.44626 54.3027 80.08936 54.9873"/>
        <polygon class="cls-3" points="80.08936 54.9873 80.30366 54.3301 80.63036 54.4346 80.08936 54.9873"/>
        <polygon class="cls-3" points="81.71096 55.6113 81.55956 56.081 81.79586 56.1553 81.71096 55.6113"/>
        <polygon class="cls-3" points="81.71096 55.6113 81.86766 56.081 81.63136 56.1553 81.71096 55.6113"/>
        <polygon class="cls-3" points="82.18116 55.9541 81.68896 55.9541 81.68896 56.1992 82.18116 55.9541"/>
        <polygon class="cls-3" points="82.18116 55.9541 81.77976 56.2461 81.63966 56.0478 82.18116 55.9541"/>
        <polygon class="cls-3" points="81.24366 55.9541 81.64206 56.2461 81.78806 56.0478 81.24366 55.9541"/>
        <polygon class="cls-3" points="81.24366 55.9541 81.73586 55.9541 81.73586 56.1992 81.24366 55.9541"/>
        <polygon class="cls-3" points="82.00246 56.5068 81.84566 56.0342 81.61476 56.1142 82.00246 56.5068"/>
        <polygon class="cls-3" points="82.00246 56.5068 81.60106 56.2158 81.74956 56.0146 82.00246 56.5068"/>
        <polygon class="cls-3" points="81.42236 56.5068 81.82376 56.2158 81.67526 56.0146 81.42236 56.5068"/>
        <polygon class="cls-3" points="81.42236 56.5068 81.57376 56.0342 81.80666 56.1142 81.42236 56.5068"/>
        <polygon class="cls-3" points="90.17036 63.7969 89.90086 64.6211 90.31346 64.7539 90.17036 63.7969"/>
        <polygon class="cls-3" points="90.17036 63.7969 90.43706 64.6211 90.02486 64.7539 90.17036 63.7969"/>
        <polygon class="cls-3" points="90.99216 64.3935 90.12646 64.3935 90.12646 64.8281 90.99216 64.3935"/>
        <polygon class="cls-3" points="90.99216 64.3935 90.29106 64.9014 90.03856 64.5527 90.99216 64.3935"/>
        <polygon class="cls-3" points="89.34526 64.3935 90.04636 64.9014 90.29936 64.5527 89.34526 64.3935"/>
        <polygon class="cls-3" points="89.34526 64.3935 90.21196 64.3935 90.21196 64.8281 89.34526 64.3935"/>
        <polygon class="cls-3" points="90.67916 65.3613 90.41206 64.539 89.99706 64.6738 90.67916 65.3613"/>
        <polygon class="cls-3" points="90.67916 65.3613 89.97806 64.8525 90.23096 64.5068 90.67916 65.3613"/>
        <polygon class="cls-3" points="89.65916 65.3613 90.35986 64.8525 90.10446 64.5068 89.65916 65.3613"/>
        <polygon class="cls-3" points="89.65916 65.3613 89.92576 64.539 90.33496 64.6738 89.65916 65.3613"/>
        <polygon class="cls-3" points="92.24026 61.834 92.02836 62.4883 92.35596 62.5986 92.24026 61.834"/>
        <polygon class="cls-3" points="92.24026 61.834 92.45456 62.4883 92.12746 62.5986 92.24026 61.834"/>
        <polygon class="cls-3" points="92.89986 62.3125 92.20706 62.3125 92.20706 62.6504 92.89986 62.3125"/>
        <polygon class="cls-3" points="92.89986 62.3125 92.34176 62.7139 92.13866 62.4394 92.89986 62.3125"/>
        <polygon class="cls-3" points="91.58346 62.3125 92.14116 62.7139 92.34766 62.4394 91.58346 62.3125"/>
        <polygon class="cls-3" points="91.58346 62.3125 92.27586 62.3125 92.27586 62.6504 91.58346 62.3125"/>
        <polygon class="cls-3" points="92.64696 63.0791 92.43506 62.4228 92.10546 62.5322 92.64696 63.0791"/>
        <polygon class="cls-3" points="92.64696 63.0791 92.08886 62.6777 92.29246 62.3974 92.64696 63.0791"/>
        <polygon class="cls-3" points="91.83886 63.0791 92.39406 62.6777 92.19096 62.3974 91.83886 63.0791"/>
        <polygon class="cls-3" points="91.83886 63.0791 92.04786 62.4228 92.37456 62.5322 91.83886 63.0791"/>
        <polygon class="cls-3" points="88.26416 61.2402 88.04936 61.8945 88.37696 62.0049 88.26416 61.2402"/>
        <polygon class="cls-3" points="88.26416 61.2402 88.47556 61.8945 88.14546 62.0049 88.26416 61.2402"/>
        <polygon class="cls-3" points="88.91796 61.7158 88.22856 61.7158 88.22856 62.0654 88.91796 61.7158"/>
        <polygon class="cls-3" points="88.91796 61.7158 88.35746 62.123 88.15726 61.8428 88.91796 61.7158"/>
        <polygon class="cls-3" points="87.60446 61.7158 88.16256 62.123 88.36276 61.8428 87.60446 61.7158"/>
        <polygon class="cls-3" points="87.60446 61.7158 88.29446 61.7158 88.29446 62.0654 87.60446 61.7158"/>
        <polygon class="cls-3" points="88.67086 62.4912 88.45656 61.834 88.12356 61.9443 88.67086 62.4912"/>
        <polygon class="cls-3" points="88.67086 62.4912 88.10746 62.082 88.31056 61.8066 88.67086 62.4912"/>
        <polygon class="cls-3" points="87.85446 62.4912 88.41506 62.082 88.21146 61.8066 87.85446 62.4912"/>
        <polygon class="cls-3" points="87.85446 62.4912 88.06886 61.834 88.39846 61.9443 87.85446 62.4912"/>
        <polygon class="cls-3" points="73.21976 60.1709 72.90376 61.1523 73.39596 61.3203 73.21976 60.1709"/>
        <polygon class="cls-3" points="73.21976 60.1709 73.54146 61.1523 73.04936 61.3203 73.21976 60.1709"/>
        <polygon class="cls-3" points="74.20946 60.8887 73.17286 60.8887 73.17286 61.4053 74.20946 60.8887"/>
        <polygon class="cls-3" points="74.20946 60.8887 73.36866 61.4961 73.06596 61.0781 74.20946 60.8887"/>
        <polygon class="cls-3" points="72.23586 60.8887 73.07666 61.4961 73.37936 61.0781 72.23586 60.8887"/>
        <polygon class="cls-3" points="72.23586 60.8887 73.27246 60.8887 73.27246 61.4053 72.23586 60.8887"/>
        <polygon class="cls-3" points="73.83296 62.043 73.51366 61.0596 73.01906 61.2236 73.83296 62.043"/>
        <polygon class="cls-3" points="73.83296 62.043 72.99166 61.4355 73.29686 61.0156 73.83296 62.043"/>
        <polygon class="cls-3" points="72.61226 62.043 73.45066 61.4355 73.14546 61.0156 72.61226 62.043"/>
        <polygon class="cls-3" points="72.61226 62.043 72.93406 61.0596 73.42576 61.2236 72.61226 62.043"/>
        <polygon class="cls-3" points="82.92866 66.9463 82.82126 67.2773 82.98926 67.332 82.92866 66.9463"/>
        <polygon class="cls-3" points="82.92866 66.9463 83.03856 67.2773 82.87106 67.332 82.92866 66.9463"/>
        <polygon class="cls-3" points="83.25826 67.1885 82.91206 67.1885 82.91206 67.3594 83.25826 67.1885"/>
        <polygon class="cls-3" points="83.25826 67.1885 82.97806 67.3926 82.87936 67.249 83.25826 67.1885"/>
        <polygon class="cls-3" points="82.60156 67.1885 82.88186 67.3926 82.98386 67.249 82.60156 67.1885"/>
        <polygon class="cls-3" points="82.60156 67.1885 82.94776 67.1885 82.94776 67.3594 82.60156 67.1885"/>
        <polygon class="cls-3" points="83.12936 67.5742 83.02786 67.2471 82.86276 67.3017 83.12936 67.5742"/>
        <polygon class="cls-3" points="83.12936 67.5742 82.85446 67.3701 82.95366 67.2334 83.12936 67.5742"/>
        <polygon class="cls-3" points="82.72806 67.5742 83.00536 67.3701 82.90676 67.2334 82.72806 67.5742"/>
        <polygon class="cls-3" points="82.72806 67.5742 82.83546 67.2471 82.99996 67.3017 82.72806 67.5742"/>
      </g>
    </g>
  </g>
</svg>